<svg width="24" height="24" viewBox="0 0 24 24" fill="none" xmlns="http://www.w3.org/2000/svg">
<path fill-rule="evenodd" clip-rule="evenodd" d="M20.1522 7.59135C20.8642 8.164 21.2822 9.02551 21.2913 9.93918L21.2826 17.9131C21.2826 20.079 19.5268 21.8348 17.3609 21.8348H15.6217C14.5734 21.8348 13.7222 20.9875 13.7174 19.9392V16.3392C13.7174 16.0606 13.4916 15.8348 13.213 15.8348H10.6043C10.4691 15.8348 10.3394 15.8891 10.2446 15.9856C10.1498 16.0821 10.0977 16.2126 10.1 16.3479V17.7218C10.1 18.154 9.74961 18.5044 9.31739 18.5044C8.88517 18.5044 8.53478 18.154 8.53478 17.7218V16.3479C8.53478 15.7967 8.75374 15.2681 9.14349 14.8783C9.53324 14.4886 10.0619 14.2696 10.613 14.2696H13.2217C14.3661 14.2744 15.2913 15.2035 15.2913 16.3479V19.9392C15.2913 20.1217 15.4392 20.2696 15.6217 20.2696H17.4043C18.701 20.2696 19.7522 19.2185 19.7522 17.9218V9.95657C19.7458 9.51531 19.5415 9.10027 19.1957 8.82613L13.187 4.03483C12.4293 3.41103 11.336 3.41103 10.5783 4.03483L8.64783 5.47831C8.29004 5.73524 7.79172 5.65348 7.53478 5.2957C7.27785 4.93791 7.35961 4.43959 7.71739 4.18266L9.62174 2.80005C10.9421 1.73869 12.8231 1.73869 14.1435 2.80005L20.1522 7.59135ZM6.42174 20.2609H10.4217V20.2783C10.854 20.2783 11.2043 20.6287 11.2043 21.0609C11.2043 21.4931 10.854 21.8435 10.4217 21.8435H6.42174C4.25781 21.8387 2.50478 20.0857 2.5 17.9218V9.95657C2.51384 9.03615 2.94588 8.17206 3.67391 7.60874L4.39565 7.06961C4.73552 6.90939 5.14129 7.01332 5.36229 7.3172C5.58329 7.62107 5.55714 8.03912 5.3 8.31309L4.59565 8.83483C4.26191 9.1121 4.06776 9.52268 4.06522 9.95657V17.9131C4.07474 19.2092 5.12562 20.2562 6.42174 20.2609Z" fill="white"/>
</svg>
