<svg width="47" height="47" viewBox="0 0 47 47" fill="none" xmlns="http://www.w3.org/2000/svg">
<path d="M23.5 0C10.5225 0 0 10.7953 0 24.098C0 34.7464 6.73527 43.7687 16.0723 46.958C16.2033 46.9865 16.337 47.0005 16.471 47C17.3417 47 17.6775 46.36 17.6775 45.804C17.6775 45.227 17.6565 43.7163 17.646 41.702C16.8686 41.8842 16.0734 41.9792 15.275 41.9853C10.7533 41.9853 9.72522 38.4707 9.72522 38.4707C8.65513 35.6906 7.11295 34.9457 7.11295 34.9457C5.06719 33.5085 7.10246 33.4665 7.25982 33.4665H7.27031C9.6308 33.6763 10.8688 35.9634 10.8688 35.9634C12.0438 38.0196 13.6174 38.5966 15.0232 38.5966C15.9528 38.578 16.8679 38.3636 17.7089 37.9672C17.9188 36.4145 18.5272 35.3549 19.1987 34.7464C13.9846 34.1379 8.49777 32.0712 8.49777 22.8391C8.49777 20.2058 9.41049 18.0551 10.9107 16.3766C10.6694 15.7681 9.86161 13.3132 11.1415 9.99799C11.3132 9.95691 11.4897 9.93926 11.6661 9.94553C12.5158 9.94553 14.4357 10.2708 17.604 12.4739C21.4538 11.3968 25.5253 11.3968 29.375 12.4739C32.5433 10.2708 34.4632 9.94553 35.3129 9.94553C35.4894 9.93926 35.6658 9.95691 35.8375 9.99799C37.1174 13.3132 36.3096 15.7681 36.0683 16.3766C37.5685 18.0656 38.4813 20.2163 38.4813 22.8391C38.4813 32.0922 32.9839 34.1274 27.7489 34.7254C28.5882 35.4703 29.3435 36.939 29.3435 39.1841C29.3435 42.4049 29.3121 45.0067 29.3121 45.7935C29.3121 46.36 29.6373 47 30.508 47C30.649 47.0006 30.7896 46.9865 30.9277 46.958C40.2752 43.7687 47 34.7359 47 24.098C47 10.7953 36.4775 0 23.5 0Z" fill="white"/>
</svg>
