<svg width="52" height="53" viewBox="0 0 52 53" fill="none" xmlns="http://www.w3.org/2000/svg">
<path d="M47.125 6.88586C47.1122 5.52393 46.5732 4.22205 45.6249 3.26247C44.6765 2.30289 43.3953 1.76297 42.0591 1.75977L9.91656 1.65625C8.58165 1.65652 7.30131 2.19628 6.35624 3.15719C5.41117 4.11811 4.8785 5.42176 4.875 6.78234V40.5781C4.875 43.4041 7.13781 45.5469 9.91656 45.5469H37.375L36.0547 40.9922L47.125 51.3438V6.88586ZM32.9723 34.1405C32.9723 34.1405 32.0866 33.065 31.3473 32.1406C34.5709 31.2151 35.8008 29.1914 35.8008 29.1914C34.9154 29.79 33.9666 30.2849 32.9723 30.6665C31.8242 31.1523 30.629 31.5129 29.4064 31.742C27.2999 32.1364 25.1399 32.128 23.0364 31.7172C21.7991 31.483 20.5881 31.1223 19.4218 30.6406C18.8048 30.3998 18.2048 30.1158 17.6262 29.7908C17.552 29.7411 17.4789 29.7162 17.4048 29.6655C17.355 29.6407 17.3306 29.6158 17.3032 29.6158C16.8604 29.3653 16.6146 29.1904 16.6146 29.1904C16.6146 29.1904 17.7948 31.1665 20.9188 32.1157C20.1805 33.066 19.2705 34.1664 19.2705 34.1664C13.8359 33.9914 11.7701 30.3912 11.7701 30.3912C11.7701 22.4142 15.3116 15.9383 15.3116 15.9383C18.853 13.2624 22.1975 13.338 22.1975 13.338L22.4433 13.6382C18.0162 14.9135 16.0002 16.8886 16.0002 16.8886C16.0002 16.8886 16.5405 16.5884 17.4505 16.1878C20.082 15.0129 22.1731 14.7127 23.0364 14.6133C23.1742 14.5841 23.3142 14.5671 23.4548 14.5626C25.1028 14.3446 26.7704 14.328 28.4223 14.5129C31.0159 14.8166 33.5287 15.6229 35.8252 16.8886C35.8252 16.8886 33.8823 15.0098 29.7009 13.7365L30.0452 13.337C30.0452 13.337 33.4141 13.2614 36.9322 15.9414C36.9322 15.9414 40.4737 22.4173 40.4737 30.3943C40.4737 30.3653 38.4069 33.9655 32.9723 34.1405Z" fill="white"/>
<path d="M21.5363 22.5664C20.1347 22.5664 19.0277 23.792 19.0277 25.3168C19.0277 26.8416 20.1591 28.0672 21.5363 28.0672C22.9379 28.0672 24.0449 26.8426 24.0449 25.3168C24.0703 23.7889 22.9379 22.5664 21.5363 22.5664ZM30.5124 22.5664C29.1108 22.5664 28.0038 23.792 28.0038 25.3168C28.0038 26.8416 29.1352 28.0672 30.5124 28.0672C31.915 28.0672 33.021 26.8426 33.021 25.3168C33.021 23.791 31.8906 22.5664 30.5124 22.5664Z" fill="white"/>
</svg>
