<svg width="750" height="750" viewBox="0 0 750 750" fill="none" xmlns="http://www.w3.org/2000/svg">
<path d="M553.636 242.409L517.487 133.378C516.9 131.583 514.381 131.527 513.715 133.294L474.22 237.979L453.033 294.15C452.834 294.678 452.42 295.097 451.895 295.304L187.72 399.479C182.634 402.053 176.906 404.646 170.72 407.094M551.609 238.238L582.664 161.087C583.362 159.354 585.844 159.439 586.422 161.216L617.22 255.996M548.446 237.548L617.22 255.996M617.22 255.996L715.777 282.948C716.848 283.24 717.475 284.35 717.175 285.418L705.064 328.479C702.116 340.51 690.22 363.964 666.22 361.526L546.72 353.479C532.553 353.812 505.52 344.979 510.72 306.979M170.72 407.094L148.521 574.216C148.361 575.414 149.294 576.479 150.503 576.479H236.999C237.988 576.479 238.829 575.756 238.977 574.777L251.487 507.825M251.501 514.245L284.142 575.482C284.5 576.099 285.159 576.479 285.873 576.479H347.72H355.035C356.509 576.479 357.477 574.938 356.836 573.61L320.22 497.69M245.551 513.703L320.957 498.36M510.72 520.979L494.645 575.049C494.393 575.897 493.613 576.479 492.728 576.479H421.22C420.115 576.479 419.22 575.584 419.22 574.479V478.465C419.22 477.188 418.039 476.238 416.792 476.512L320.219 498.473M170.72 407.094C123.094 425.939 49.3412 403.55 32.0532 329.935C31.8532 329.081 32.2272 328.185 33.0022 327.775C66.7442 309.948 138.731 326.225 170.72 407.094ZM510.72 520.979L533.531 433.537C533.976 431.829 536.254 431.493 537.173 433L622.864 573.437C623.677 574.77 622.718 576.479 621.157 576.479H552.729C552.094 576.479 551.498 576.178 551.12 575.667L510.72 520.979Z" stroke="url(#paint0_linear_159_2)" stroke-width="15"/>
<path d="M563.22 288.979C569.296 288.979 574.22 284.054 574.22 277.979C574.22 271.904 569.296 266.979 563.22 266.979C557.145 266.979 552.22 271.904 552.22 277.979C552.22 284.054 557.145 288.979 563.22 288.979Z" fill="url(#paint1_linear_159_2)"/>
<defs>
<linearGradient id="paint0_linear_159_2" x1="670.721" y1="197.979" x2="111.72" y2="594.979" gradientUnits="userSpaceOnUse">
<stop stop-color="#F39810"/>
<stop offset="1" stop-color="#AF3030"/>
</linearGradient>
<linearGradient id="paint1_linear_159_2" x1="541.221" y1="307.479" x2="577.221" y2="258.979" gradientUnits="userSpaceOnUse">
<stop stop-color="#E22626"/>
<stop offset="1" stop-color="#DB7C38"/>
</linearGradient>
</defs>
</svg>
