<svg width="448" height="352" viewBox="0 0 448 352" fill="none" xmlns="http://www.w3.org/2000/svg">
<path d="M392 0H56C41.1528 0.0158823 26.9182 5.92097 16.4196 16.4196C5.92097 26.9182 0.0158823 41.1528 0 56V296C0.0158823 310.847 5.92097 325.082 16.4196 335.58C26.9182 346.079 41.1528 351.984 56 352H392C406.847 351.984 421.082 346.079 431.58 335.58C442.079 325.082 447.984 310.847 448 296V56C447.984 41.1528 442.079 26.9182 431.58 16.4196C421.082 5.92097 406.847 0.0158823 392 0V0ZM377.82 92.63L233.82 204.63C231.012 206.813 227.557 207.998 224 207.998C220.443 207.998 216.988 206.813 214.18 204.63L70.18 92.63C68.4881 91.3523 67.0671 89.7512 65.9994 87.9196C64.9316 86.088 64.2386 84.0624 63.9605 81.9606C63.6824 79.8588 63.8248 77.7227 64.3793 75.6765C64.9339 73.6302 65.8897 71.7145 67.191 70.0408C68.4923 68.3671 70.1133 66.9687 71.9598 65.9269C73.8063 64.8851 75.8414 64.2206 77.9468 63.9721C80.0523 63.7236 82.1862 63.896 84.2245 64.4793C86.2627 65.0626 88.1648 66.0452 89.82 67.37L224 171.73L358.18 67.37C361.535 64.8362 365.753 63.7249 369.921 64.2765C374.089 64.828 377.873 66.998 380.453 70.3172C383.034 73.6365 384.205 77.8381 383.712 82.0136C383.219 86.1891 381.103 90.0028 377.82 92.63Z" fill="white"/>
</svg>
