<svg width="112" height="11" viewBox="0 0 112 11" fill="none" xmlns="http://www.w3.org/2000/svg">
<path d="M2 7.39271C3.21456 6.32894 4.83848 5.53918 6.68434 4.77415C8.04498 4.21023 9.08225 3.50282 10.5301 2.98251C11.6375 2.58456 13.0261 2.54645 14.2313 2.26279C15.359 1.99738 16.3776 2.01778 17.6145 2.01778C18.8158 2.01778 19.0541 2.35141 19.841 2.76813C21.8509 3.83253 21.4492 5.69326 23.1374 6.8108C23.6633 7.15898 23.2184 7.89257 23.9181 8.18899C25.1756 8.72175 28.9446 8.35744 30.4819 8.35744C32.4962 8.35744 33.5097 7.27271 35.1807 6.77252C37.2046 6.16671 39.382 5.09878 40.8916 4.15397C41.91 3.51656 43.1634 2.4795 44.8096 2.28576C46.8359 2.0473 48.799 1.95851 50.9253 2.01778C52.3593 2.05775 52.2731 2.90021 52.6892 3.39597C52.9635 3.72284 53.2675 4.50744 53.2675 4.84306C53.2675 5.57809 53.2675 6.31313 53.2675 7.04816C53.2675 7.71496 55.4743 8.23996 56.5928 8.46463C59.0589 8.96 60.9653 9.23246 63.4747 8.74026C66.8957 8.06927 68.3957 6.22246 71.094 5.11104C72.8838 4.37383 75.8481 3.67345 77.9325 4.66696C78.5472 4.95994 78.9232 5.43367 79.494 5.76951C80.3687 6.2842 81.0823 6.82504 82.0241 7.3238C84.1861 8.46876 87.634 8.63307 90.4964 8.63307C92.0069 8.63307 94.8756 8.11376 96.0627 7.59943C97.7984 6.84736 99.4905 6.06742 101.094 5.21823C102.164 4.6517 102.652 4.22288 104.275 4.22288C105.754 4.22288 105.882 4.82922 106.357 5.39434C106.814 5.93985 107.192 6.49294 107.658 7.04816C108.16 7.64648 109.608 8.01047 110 8.63307" stroke="url(#paint0_linear_15_28)" stroke-width="3" stroke-linecap="round"/>
<defs>
<linearGradient id="paint0_linear_15_28" x1="108.5" y1="1.12501" x2="5.16816" y2="23.5794" gradientUnits="userSpaceOnUse">
<stop stop-color="#F39810"/>
<stop offset="1" stop-color="#E22626"/>
</linearGradient>
</defs>
</svg>
