<svg width="514" height="497" viewBox="0 0 514 497" fill="none" xmlns="http://www.w3.org/2000/svg">
<path d="M417.19 373.306C470.318 305.306 458.262 207.111 390.261 153.982L316.385 96.2642L205.565 238.106C199.806 245.478 191.397 249.564 182.738 250.066C175.423 250.491 167.929 248.358 161.701 243.492C148.1 232.866 145.689 213.228 156.315 199.627L170.937 180.912L97.0607 123.194L77.8216 147.819C66.0151 162.931 58.2327 179.906 54.3157 197.455C54.0629 198.586 53.826 199.719 53.6056 200.854C44.9348 245.523 61.0489 293.344 99.3643 323.279C153.765 365.782 232.321 356.136 274.823 301.736L332.542 227.859C347.287 239.378 355.455 256.194 356.46 273.512C359.93 311.693 349.44 351.225 323.974 383.821C307.586 404.796 286.913 420.447 264.159 430.505C319.995 441.343 379.771 421.201 417.19 373.306Z" fill="url(#paint0_linear)"/>
<defs>
<linearGradient id="paint0_linear" x1="216.059" y1="121.941" x2="355.634" y2="483.09" gradientUnits="userSpaceOnUse">
<stop offset="0.194439" stop-color="#2E71D6"/>
<stop offset="0.788709" stop-color="#5000B6"/>
</linearGradient>
</defs>
</svg>
