<svg width="461" height="456" viewBox="0 0 461 456" fill="none" xmlns="http://www.w3.org/2000/svg">
<path d="M332.442 228.022C359.642 206.772 364.465 167.494 343.214 140.293C333.482 127.837 319.97 120.073 305.568 117.358C343.455 123.228 379.275 142.97 404.741 175.566C421.128 196.54 431.313 220.387 435.568 244.897C434.957 246.208 434.328 247.511 433.68 248.805C423.622 268.905 409.05 287.14 390.16 301.898L316.284 359.617L291.659 378.856L229.323 299.07C235.551 294.205 239.433 287.449 240.791 280.249C242.398 271.726 240.469 262.577 234.709 255.205L181.609 187.239L58.4819 283.436L0.763672 209.56L197.766 55.6451L332.442 228.022Z" fill="url(#paint0_linear)"/>
<defs>
<linearGradient id="paint0_linear" x1="0.763593" y1="209.56" x2="460.096" y2="247.258" gradientUnits="userSpaceOnUse">
<stop stop-color="#2E5DD6"/>
<stop offset="1" stop-color="#5000B6"/>
</linearGradient>
</defs>
</svg>
